<svg width="20" height="20" viewBox="0 0 20 20" fill="none" xmlns="http://www.w3.org/2000/svg">
<path d="M12.0289 9.6877L8.4375 6.03613V9.45332C8.4375 9.51548 8.46219 9.57509 8.50615 9.61905C8.5501 9.663 8.60971 9.6877 8.67187 9.6877H12.0289Z" fill="#8B91AB"/>
<path d="M7.1875 10.4688V5.625H2.34375C2.21943 5.625 2.1002 5.67439 2.01229 5.76229C1.92439 5.8502 1.875 5.96943 1.875 6.09375V18.9062C1.875 19.0306 1.92439 19.1498 2.01229 19.2377C2.1002 19.3256 2.21943 19.375 2.34375 19.375H12.0312C12.1556 19.375 12.2748 19.3256 12.3627 19.2377C12.4506 19.1498 12.5 19.0306 12.5 18.9062V10.9375H7.65625C7.53193 10.9375 7.4127 10.8881 7.32479 10.8002C7.23689 10.7123 7.1875 10.5931 7.1875 10.4688Z" fill="#8B91AB"/>
<path d="M14.2969 4.6877H17.6539L14.0625 1.03613V4.45332C14.0625 4.51548 14.0872 4.57509 14.1311 4.61905C14.1751 4.663 14.2347 4.6877 14.2969 4.6877Z" fill="#8B91AB"/>
<path d="M13.2812 5.9375C13.1569 5.9375 13.0377 5.88811 12.9498 5.80021C12.8619 5.7123 12.8125 5.59307 12.8125 5.46875V0.625H6.71875C6.59443 0.625 6.4752 0.674386 6.38729 0.762294C6.29939 0.850201 6.25 0.96943 6.25 1.09375V4.375H7.89531C8.10532 4.37584 8.31309 4.41817 8.50669 4.49955C8.70029 4.58093 8.8759 4.69976 9.02344 4.84922L13.2875 9.18516C13.585 9.48699 13.7511 9.89418 13.7496 10.318V15.625H17.6562C17.7806 15.625 17.8998 15.5756 17.9877 15.4877C18.0756 15.3998 18.125 15.2806 18.125 15.1562V5.9375H13.2812Z" fill="#8B91AB"/>
</svg>
