<svg width="20" height="19" viewBox="0 0 20 19" fill="none" xmlns="http://www.w3.org/2000/svg">
<path d="M10 0.739258C8.63636 0.739258 7.57102 1.21933 6.80398 2.17948C6.03693 3.13962 5.65341 4.36697 5.65341 5.86154C5.64394 7.71842 6.26894 9.19034 7.52841 10.2773C7.68939 10.4222 7.74621 10.6079 7.69886 10.8344L7.37216 11.4865C7.26799 11.7039 7.11411 11.8738 6.91051 11.996C6.70691 12.1183 6.27841 12.2927 5.625 12.5191C5.59659 12.5282 4.99763 12.7139 3.82812 13.0762C2.65862 13.4385 2.03598 13.6378 1.96023 13.674C1.16477 13.9911 0.643939 14.3217 0.397727 14.6659C0.132576 15.2365 0 16.6813 0 19.0001H20C20 16.6813 19.8674 15.2365 19.6023 14.6659C19.3561 14.3217 18.8352 13.9911 18.0398 13.674C17.964 13.6378 17.3414 13.4385 16.1719 13.0762C15.0024 12.7139 14.4034 12.5282 14.375 12.5191C13.7216 12.2927 13.2931 12.1183 13.0895 11.996C12.8859 11.8738 12.732 11.7039 12.6278 11.4865L12.3011 10.8344C12.2538 10.6079 12.3106 10.4222 12.4716 10.2773C13.7311 9.19034 14.3561 7.71842 14.3466 5.86154C14.3466 4.36697 13.9631 3.13962 13.196 2.17948C12.429 1.21933 11.3636 0.739258 10 0.739258Z" fill="#8B91AB"/>
</svg>
